<?xml version="1.0" encoding="utf-8"?>
<!-- Generator: Adobe Illustrator 27.0.0, SVG Export Plug-In . SVG Version: 6.00 Build 0)  -->
<svg version="1.1" id="Layer_1" xmlns="http://www.w3.org/2000/svg" xmlns:xlink="http://www.w3.org/1999/xlink" x="0px" y="0px"
	 viewBox="0 0 1080 1080" style="enable-background:new 0 0 1080 1080;" xml:space="preserve">
<style type="text/css">
	.st0{fill:#9CF8FE;}
	.st1{fill:#4C94AC;}
</style>
<g>
	<path class="st0" d="M231.3,350.77V219.33c0-20.74,16.81-37.56,37.56-37.56v-25.59h0c-35.1,0-63.56,28.46-63.56,63.56V341.9
		c0,19.37-15.71,35.08-35.08,35.08v12.38v12.38c19.37,0,35.08,15.71,35.08,35.08v122.16c0,35.1,28.45,63.56,63.56,63.56h0v-25.59
		c-20.74,0-37.56-16.81-37.56-37.56V427.95c0-21.31-11.29-38.59-32.6-38.59C220.01,389.36,231.3,372.08,231.3,350.77z"/>
	<path class="st0" d="M293.4,354.61V236.25c0-18.68,15.14-33.82,33.82-33.82v-23.04h0c-31.61,0-57.23,25.62-57.23,57.23v110
		c0,17.45-14.14,31.59-31.59,31.59v11.15v11.15c17.45,0,31.59,14.14,31.59,31.59v110c0,31.61,25.62,57.23,57.23,57.23h0v-23.04
		c-18.68,0-33.82-15.14-33.82-33.82V424.11c0-19.19-10.17-34.75-29.36-34.75C283.23,389.36,293.4,373.8,293.4,354.61z"/>
	
		<rect x="383.89" y="317.07" transform="matrix(0.9208 0.3901 -0.3901 0.9208 192.952 -122.0269)" class="st0" width="25.97" height="193.82"/>
	<path class="st0" d="M848.7,350.77V219.33c0-20.74-16.81-37.56-37.56-37.56v-25.59h0c35.1,0,63.56,28.46,63.56,63.56V341.9
		c0,19.37,15.71,35.08,35.08,35.08v12.38v12.38c-19.37,0-35.08,15.71-35.08,35.08v122.16c0,35.1-28.45,63.56-63.56,63.56h0v-25.59
		c20.74,0,37.56-16.81,37.56-37.56V427.95c0-21.31,11.29-38.59,32.6-38.59C859.99,389.36,848.7,372.08,848.7,350.77z"/>
	<path class="st0" d="M786.6,354.61V236.25c0-18.68-15.14-33.82-33.82-33.82v-23.04h0c31.61,0,57.23,25.62,57.23,57.23v110
		c0,17.45,14.14,31.59,31.59,31.59v11.15v11.15c-17.45,0-31.59,14.14-31.59,31.59v110c0,31.61-25.62,57.23-57.23,57.23h0v-23.04
		c18.68,0,33.82-15.14,33.82-33.82V424.11c0-19.19,10.17-34.75,29.36-34.75C796.77,389.36,786.6,373.8,786.6,354.61z"/>
	
		<rect x="670.14" y="317.07" transform="matrix(-0.9208 0.3901 -0.3901 -0.9208 1473.6316 528.6476)" class="st0" width="25.97" height="193.82"/>
	<path class="st0" d="M540,159.9c-35.27,0-63.86,31.69-63.86,70.78s28.59,70.78,63.86,70.78c35.27,0,63.86-31.69,63.86-70.78
		S575.27,159.9,540,159.9z M540,275.61c-22.39,0-40.54-20.12-40.54-44.93s18.15-44.93,40.54-44.93c22.39,0,40.54,20.12,40.54,44.93
		S562.39,275.61,540,275.61z"/>
	<polygon class="st0" points="613.78,374.15 600.78,351.64 553,379.22 553,324.05 527,324.05 527,379.22 479.22,351.64 
		466.22,374.15 514,401.74 466.22,429.33 479.22,451.85 527,424.26 527,479.43 553,479.43 553,424.26 600.78,451.85 613.78,429.33 
		566,401.74 	"/>
	<path class="st0" d="M540,503.06c-40.95,0-77.98,16.81-104.54,43.92l19.1,19.12c21.68-22.23,51.95-36.02,85.43-36.02
		c33.5,0,63.77,13.79,85.43,36.02l19.1-19.12C617.98,519.87,580.95,503.06,540,503.06z"/>
	<path class="st0" d="M540,556.31c-40.95,0-77.98,16.81-104.54,43.92l19.1,19.12c21.68-22.23,51.95-36.02,85.43-36.02
		c33.5,0,63.77,13.79,85.43,36.02l19.1-19.12C617.98,573.12,580.95,556.31,540,556.31z"/>
	<g>
		<g>
			<path class="st0" d="M225.83,676.79h-9.29c-16,0-29.01,13.01-29.01,29.01c0,9.12,3.49,17.75,9.84,24.3l34.97,36.13
				c3.31,3.42,5.13,7.92,5.13,12.67v7.06c0,5.23-4.25,9.48-9.48,9.48h-13.21c-5.22,0-9.48-4.25-9.48-9.48v-19.4h-17.37v19.4
				c0,14.8,12.04,26.84,26.84,26.84H228c14.8,0,26.84-12.04,26.84-26.84v-7.06c0-9.29-3.56-18.08-10.02-24.75l-34.97-36.13
				c-3.19-3.3-4.95-7.64-4.95-12.22c0-6.42,5.22-11.64,11.64-11.64h9.29c6.42,0,11.64,5.22,11.64,11.64v17.23h17.37V705.8
				C254.84,689.8,241.83,676.79,225.83,676.79z"/>
			<path class="st0" d="M415.14,676.79h-9.29c-16,0-29.01,13.01-29.01,29.01c0,9.12,3.49,17.75,9.84,24.3l34.97,36.13
				c3.31,3.42,5.13,7.92,5.13,12.67v7.06c0,5.23-4.25,9.48-9.48,9.48H404.1c-5.22,0-9.48-4.25-9.48-9.48v-19.4h-17.37v19.4
				c0,14.8,12.04,26.84,26.84,26.84h13.21c14.8,0,26.84-12.04,26.84-26.84v-7.06c0-9.29-3.56-18.08-10.02-24.75l-34.97-36.13
				c-3.19-3.3-4.95-7.64-4.95-12.22c0-6.42,5.22-11.64,11.64-11.64h9.29c6.42,0,11.64,5.22,11.64,11.64v17.23h17.37V705.8
				C444.15,689.8,431.13,676.79,415.14,676.79z"/>
			<path class="st0" d="M334.77,745.31c0,5.45-4.44,9.89-9.89,9.89h-16.71c-5.45,0-9.89-4.44-9.89-9.89v-65.31h-17.37v65.31
				c0,14.92,12.05,27.06,26.93,27.24v36.83h17.37v-36.83c14.88-0.18,26.93-12.32,26.93-27.24v-65.31h-17.37V745.31z"/>
			<path class="st0" d="M535.37,680.01h-17.37v0.07l-0.09-0.07l-51.28,83.88l0.52,0.29h-0.52v17.37h51.36v27.84h17.37v-27.84h9.27
				v-17.37h-9.27V680.01z M484.43,764.18l0.16-0.29l33.41-56.08v56.38H484.43z"/>
			<path class="st0" d="M668.22,680.3h-38.17V809.4h38.17c15.84,0,28.73-12.89,28.73-28.72v-71.66
				C696.95,693.18,684.06,680.3,668.22,680.3z M679.58,780.68c0,6.26-5.1,11.36-11.36,11.36h-20.8v-94.37h20.8
				c6.26,0,11.36,5.1,11.36,11.36V780.68z"/>
			<path class="st0" d="M768.56,677.9h-11.5c-15.27,0-27.69,12.79-27.69,28.51v76.88c0,15.72,12.42,28.51,27.69,28.51h11.5
				c15.27,0,27.69-12.79,27.69-28.51v-10.6h-17.37v10.6c0,6.14-4.63,11.14-10.33,11.14h-11.5c-5.69,0-10.33-5-10.33-11.14v-32.04
				l49.52-0.03v-44.82C796.25,690.69,783.83,677.9,768.56,677.9z M778.89,733.89h-32.16v-27.48c0-6.14,4.63-11.14,10.33-11.14h11.5
				c5.69,0,10.33,5,10.33,11.14V733.89z"/>
			<polygon class="st0" points="880.68,680.01 856.75,787.2 832.81,680.01 815.68,680.01 844.57,809.39 856.75,809.39 
				868.92,809.39 897.81,680.01 			"/>
			<rect x="577.35" y="785.35" class="st0" width="20.02" height="24.04"/>
		</g>
	</g>
	<path class="st1" d="M245.34,913.39h32.96v10.42h-34.59c-7.74,0-14.01-6.27-14.01-14.01v-24.82c0-7.74,6.27-14.01,14.01-14.01
		h34.59v12.8h-32.96c-2.05,0-3.72,1.66-3.72,3.72v22.18C241.62,911.73,243.28,913.39,245.34,913.39z"/>
	<path class="st1" d="M618.31,870.98v12.8h-36.68v40.03h-11.29v-49.43c0-1.88,1.52-3.4,3.4-3.4H618.31z"/>
	<path class="st1" d="M428.11,897.38L428.11,897.38c0,6.97-5.65,12.61-12.61,12.61h-18.96v-8.98h17.99c0.91,0,1.65-0.74,1.65-1.65
		v-3.06c0-0.91-0.74-1.65-1.65-1.65h-17.87c-1.7,0-3.08,1.38-3.08,3.08v13.59c0,1.14,0.93,2.07,2.07,2.07h19.45v10.42h-18.45
		c-7.51,0-13.59-6.09-13.59-13.59v-12.84c0-7.51,6.09-13.59,13.59-13.59h17.86C422.03,883.78,428.11,889.87,428.11,897.38z"/>
	<path class="st1" d="M851.7,897.38L851.7,897.38c0,6.97-5.65,12.61-12.61,12.61h-18.96v-8.98h17.99c0.91,0,1.65-0.74,1.65-1.65
		v-3.06c0-0.91-0.74-1.65-1.65-1.65h-17.87c-1.7,0-3.08,1.38-3.08,3.08v13.59c0,1.14,0.93,2.07,2.07,2.07h19.45v10.42h-18.45
		c-7.51,0-13.59-6.09-13.59-13.59v-12.84c0-7.51,6.09-13.59,13.59-13.59h17.86C845.62,883.78,851.7,889.87,851.7,897.38z"/>
	<path class="st1" d="M500.69,883.78v40.03h-30.41c-7.74,0-14.01-6.27-14.01-14.01v-26.02h11.31v24.3c0,2.94,2.38,5.32,5.32,5.32
		h16.5v-29.61H500.69z"/>
	<path class="st1" d="M668.22,883.78v40.03h-30.41c-7.74,0-14.01-6.27-14.01-14.01v-26.02h11.31v24.3c0,2.94,2.38,5.32,5.32,5.32
		h16.5v-29.61H668.22z"/>
	<path class="st1" d="M761.52,883.78v40.03H731.1c-7.74,0-14.01-6.27-14.01-14.01v-26.02h11.31v24.3c0,2.94,2.38,5.32,5.32,5.32
		h16.5v-29.61H761.52z"/>
	<path class="st1" d="M542.33,883.78v10.87h-24.14v29.16h-11.31V895.9c0-6.69,5.43-12.12,12.12-12.12H542.33z"/>
	<path class="st1" d="M802.27,883.78v10.87h-24.14v29.16h-11.31V895.9c0-6.69,5.43-12.12,12.12-12.12H802.27z"/>
	<path class="st1" d="M314.12,883.78h-18.43c-7.39,0-13.38,5.99-13.38,13.38v13.27c0,7.39,5.99,13.38,13.38,13.38h18.43
		c7.39,0,13.38-5.99,13.38-13.38v-13.27C327.5,889.77,321.51,883.78,314.12,883.78z M316.25,911.36c0,1.12-0.91,2.03-2.03,2.03
		h-18.6c-1.12,0-2.03-0.91-2.03-2.03v-14.67c0-1.12,0.91-2.03,2.03-2.03h18.6c1.12,0,2.03,0.91,2.03,2.03V911.36z"/>
	<path class="st1" d="M377.96,866.66v45.16c0,6.62-5.37,11.99-11.99,11.99h-20.11c-6.54,0-11.84-5.3-11.84-11.84v-16.35
		c0-6.54,5.3-11.84,11.84-11.84h18.17v10.87h-16.76c-1.26,0-2.28,1.02-2.28,2.28v14.19c0,1.26,1.02,2.28,2.28,2.28h17.23
		c1.2,0,2.17-0.97,2.17-2.17v-44.57H377.96z"/>
	<rect x="584.27" y="892.5" class="st1" width="30.48" height="10.21"/>
	<polygon class="st1" points="711.78,883.78 711.78,894.65 696.15,894.65 696.15,923.82 684.86,923.82 684.86,894.65 673.71,894.65 
		673.71,883.78 684.86,883.78 684.86,870.98 696.15,870.98 696.15,883.78 	"/>
</g>
</svg>
