<?xml version="1.0" encoding="UTF-8"?>
<svg width="1032px" height="292px" viewBox="0 0 1032 292" version="1.1" xmlns="http://www.w3.org/2000/svg" xmlns:xlink="http://www.w3.org/1999/xlink">
    <title>Artboard</title>
    <g id="Artboard" stroke="none" stroke-width="1" fill="none" fill-rule="evenodd">
        <g id="Group-2" transform="translate(0.000000, 4.000000)" fill="#E7E7E7" fill-rule="nonzero">
            <path d="M37.8269746,120.168797 L37.8269746,38.9981988 C37.8269746,26.1902393 48.2374436,15.8030706 61.087963,15.8030706 L61.087963,0 L61.087963,0 C39.3504579,0 21.725119,17.5754353 21.725119,39.2513938 L21.725119,114.69114 C21.725119,126.653058 11.9958824,136.354747 0,136.354747 L0,144 L0,151.645253 C11.9958824,151.645253 21.725119,161.346942 21.725119,173.30886 L21.725119,248.748606 C21.725119,270.424565 39.3442649,288 61.087963,288 L61.087963,288 L61.087963,272.196929 C48.2436366,272.196929 37.8269746,261.815936 37.8269746,249.001801 L37.8269746,167.831203 C37.8269746,154.671241 30.8350535,144 17.6377249,144 C30.8350535,144 37.8269746,133.328759 37.8269746,120.168797 Z" id="Path"></path>
            <path d="M76.043934,122.621316 L76.043934,49.8045939 C76.043934,38.3123976 85.3796171,28.9980585 96.8981481,28.9980585 L96.8981481,14.8235294 L96.8981481,14.8235294 C77.4066725,14.8235294 61.6087728,30.5853105 61.6087728,50.0322231 L61.6087728,117.705756 C61.6087728,128.44124 52.8897135,137.140365 42.1296296,137.140365 L42.1296296,144 L42.1296296,150.859635 C52.8897135,150.859635 61.6087728,159.55876 61.6087728,170.294244 L61.6087728,237.967777 C61.6087728,257.414689 77.4066725,273.176471 96.8981481,273.176471 L96.8981481,273.176471 L96.8981481,259.001941 C85.3796171,259.001941 76.043934,249.687602 76.043934,238.195406 L76.043934,165.378684 C76.043934,153.572729 69.7728708,144 57.9398617,144 C69.7728708,144 76.043934,134.427271 76.043934,122.621316 Z" id="Path"></path>
            <polygon id="Rectangle" transform="translate(139.711819, 159.589437) rotate(22.960107) translate(-139.711819, -159.589437) " points="131.61525 99.7741113 147.5817 99.8044852 147.808388 219.404764 131.841938 219.37439"></polygon>
            <path d="M417.173025,120.168797 L417.173025,38.9981988 C417.173025,26.1902393 406.762556,15.8030706 393.912037,15.8030706 L393.912037,0 L393.912037,0 C415.649542,0 433.274881,17.5754353 433.274881,39.2513938 L433.274881,114.69114 C433.274881,126.653058 443.004118,136.354747 455,136.354747 L455,144 L455,151.645253 C443.004118,151.645253 433.274881,161.346942 433.274881,173.30886 L433.274881,248.748606 C433.274881,270.424565 415.655735,288 393.912037,288 L393.912037,288 L393.912037,272.196929 C406.756363,272.196929 417.173025,261.815936 417.173025,249.001801 L417.173025,167.831203 C417.173025,154.671241 424.164947,144 437.362275,144 C424.164947,144 417.173025,133.328759 417.173025,120.168797 Z" id="Path"></path>
            <path d="M378.956066,122.621316 L378.956066,49.8045939 C378.956066,38.3123976 369.620383,28.9980585 358.101852,28.9980585 L358.101852,14.8235294 L358.101852,14.8235294 C377.593328,14.8235294 393.391227,30.5853105 393.391227,50.0322231 L393.391227,117.705756 C393.391227,128.44124 402.110287,137.140365 412.87037,137.140365 L412.87037,144 L412.87037,150.859635 C402.110287,150.859635 393.391227,159.55876 393.391227,170.294244 L393.391227,237.967777 C393.391227,257.414689 377.593328,273.176471 358.101852,273.176471 L358.101852,273.176471 L358.101852,259.001941 C369.620383,259.001941 378.956066,249.687602 378.956066,238.195406 L378.956066,165.378684 C378.956066,153.572729 385.227129,144 397.060138,144 C385.227129,144 378.956066,134.427271 378.956066,122.621316 Z" id="Path"></path>
            <polygon id="Rectangle" transform="translate(315.531935, 159.561683) rotate(157.039893) translate(-315.531935, -159.561683) " points="307.662053 99.7767307 323.628503 99.7463568 323.401816 219.346635 307.435366 219.377009"></polygon>
            <path d="M228.553241,2.11764706 C207.030086,2.11764706 189.583333,21.5541944 189.583333,45.5294118 C189.583333,69.5046291 207.030086,88.9411765 228.553241,88.9411765 C250.076395,88.9411765 267.523148,69.5046291 267.523148,45.5294118 C267.523148,21.5541944 250.076395,2.11764706 228.553241,2.11764706 Z M228.553241,73.0864983 C214.889974,73.0864983 203.814123,60.7462228 203.814123,45.5294118 C203.814123,30.3126008 214.889974,17.9723252 228.553241,17.9723252 C242.216508,17.9723252 253.292358,30.3126008 253.292358,45.5294118 C253.292358,60.7462228 242.216508,73.0864983 228.553241,73.0864983 Z" id="Shape"></path>
            <polygon id="Path" points="273.842593 134.490895 265.862631 120.685575 236.533202 137.600312 236.533202 103.764706 220.573279 103.764706 220.573279 137.600312 191.243851 120.685575 183.263889 134.490895 212.593317 151.411765 183.263889 168.332634 191.243851 182.144087 220.573279 165.223217 220.573279 199.058824 236.533202 199.058824 236.533202 165.223217 265.862631 182.144087 273.842593 168.332634 244.513164 151.411765"></polygon>
            <path d="M228.559387,216 C203.390127,216 180.630233,226.164303 164.305556,242.556584 L176.045064,254.117647 C189.370327,240.676097 207.975297,232.337862 228.553241,232.337862 C249.143478,232.337862 267.748447,240.676097 281.061418,254.117647 L292.800926,242.556584 C276.488541,226.164303 253.728647,216 228.559387,216 Z" id="Path"></path>
            <path d="M228.559387,247.764706 C203.390127,247.764706 180.630233,257.929009 164.305556,274.32129 L176.045064,285.882353 C189.370327,272.440803 207.975297,264.102568 228.553241,264.102568 C249.143478,264.102568 267.748447,272.440803 281.061418,285.882353 L292.800926,274.32129 C276.488541,257.929009 253.728647,247.764706 228.559387,247.764706 Z" id="Path"></path>
        </g>
        <g id="Group" transform="translate(502.000000, 56.000000)" fill="#E7E7E7" fill-rule="nonzero">
            <g id="Group-3">
                <path d="M63.1899538,0 L47.8626778,0 C21.4647859,0 0,19.8961841 0,44.3649732 C0,58.3121829 5.75804018,71.510036 16.2347035,81.5269465 L73.9305961,136.780531 C79.39166,142.010735 82.3944202,148.892581 82.3944202,156.156753 L82.3944202,166.953606 C82.3944202,174.951842 75.3824801,181.451364 66.7536692,181.451364 L44.9589097,181.451364 C36.3465974,181.451364 29.3181587,174.951842 29.3181587,166.953606 L29.3181587,137.2852 L0.659947298,137.2852 L0.659947298,166.953606 C0.659947298,189.587236 20.524361,208 44.942411,208 L66.7701679,208 C91.1882179,208 111.052632,189.587236 111.052632,166.953606 L111.052632,156.156753 C111.052632,141.949563 105.179101,128.507022 94.5209518,118.306595 L36.8250592,63.0530108 C31.5619795,58.0063231 28.6582114,51.369164 28.6582114,44.3649732 C28.6582114,34.5468716 37.2705237,26.5639291 47.8626778,26.5639291 L63.1899538,26.5639291 C73.7821079,26.5639291 82.3944202,34.5468716 82.3944202,44.3649732 L82.3944202,70.7148004 L111.052632,70.7148004 L111.052632,44.3649732 C111.052632,19.8961841 89.5878457,0 63.1899538,0 Z" id="Path"></path>
                <path d="M374.146706,0 L358.817154,0 C332.415342,0 310.947368,19.8961841 310.947368,44.3649732 C310.947368,58.3121829 316.706264,71.510036 327.184483,81.5269465 L384.888943,136.780531 C390.350818,142.010735 393.354024,148.892581 393.354024,156.156753 L393.354024,166.953606 C393.354024,174.951842 386.341043,181.451364 377.710951,181.451364 L355.929456,181.451364 C347.315865,181.451364 340.286382,174.951842 340.286382,166.953606 L340.286382,137.2852 L311.623915,137.2852 L311.623915,166.953606 C311.623915,189.587236 331.491278,208 355.912955,208 L377.710951,208 C402.132627,208 422,189.587236 422,166.953606 L422,156.156753 C422,141.949563 416.125587,128.507022 405.465856,118.306595 L347.761395,63.0530108 C342.497534,58.0063231 339.593335,51.369164 339.593335,44.3649732 C339.593335,34.5468716 348.206926,26.5639291 358.800653,26.5639291 L374.130205,26.5639291 C384.723932,26.5639291 393.337523,34.5468716 393.337523,44.3649732 L393.337523,70.7148004 L422,70.7148004 L422,44.3649732 C422.016492,19.8961841 400.532017,0 374.146706,0 Z" id="Path"></path>
                <path d="M241.870424,105.479136 C241.870424,113.840638 234.486663,120.652577 225.423263,120.652577 L197.634381,120.652577 C188.570981,120.652577 181.18722,113.840638 181.18722,105.479136 L181.18722,5.27918782 L152.300752,5.27918782 L152.300752,105.479136 C152.300752,128.369707 172.340012,146.995145 197.085588,147.271305 L197.085588,203.77665 L225.972056,203.77665 L225.972056,147.271305 C250.717632,146.995145 270.756892,128.369707 270.756892,105.479136 L270.756892,5.27918782 L241.870424,5.27918782 L241.870424,105.479136 L241.870424,105.479136 Z" id="Path"></path>
            </g>
        </g>
        <g id="Shape-2" transform="translate(941.000000, 0.000000)" fill="#E7E7E7" fill-rule="nonzero">
            <path d="M80.1966667,0 L59.9316667,0 L59.9316667,0.0697944041 L59.8266667,0 L0,83.6336373 L0.606666667,83.9227856 L0,83.9227856 L0,101.241768 L59.92,101.241768 L59.92,129 L80.185,129 L80.185,101.241768 L91,101.241768 L91,83.9227856 L80.185,83.9227856 L80.185,0 L80.1966667,0 Z M21.4117647,84.1983231 L21.6005607,83.9080274 L61.0235294,27.7708333 L61.0235294,84.2083333 L21.4117647,84.2083333 L21.4117647,84.1983231 Z" id="Shape"></path>
        </g>
    </g>
</svg>