<?xml version="1.0" encoding="UTF-8"?>
<svg width="740px" height="657px" viewBox="0 0 740 657" version="1.1" xmlns="http://www.w3.org/2000/svg" xmlns:xlink="http://www.w3.org/1999/xlink">
    <title>Artboard</title>
    <g id="Artboard" stroke="none" stroke-width="1" fill="none" fill-rule="evenodd">
        <g id="Group-2" fill="#FCD34D" fill-rule="nonzero">
            <path d="M61.08,194.59 L61.08,63.15 C61.08,42.41 77.89,25.59 98.64,25.59 L98.64,0 L98.64,0 C63.54,0 35.08,28.46 35.08,63.56 L35.08,185.72 C35.08,205.09 19.37,220.8 0,220.8 L0,233.18 L0,245.56 C19.37,245.56 35.08,261.27 35.08,280.64 L35.08,402.8 C35.08,437.9 63.53,466.36 98.64,466.36 L98.64,466.36 L98.64,440.77 C77.9,440.77 61.08,423.96 61.08,403.21 L61.08,271.77 C61.08,250.46 49.79,233.18 28.48,233.18 C49.79,233.18 61.08,215.9 61.08,194.59 Z" id="Path"></path>
            <path d="M123.18,198.43 L123.18,80.07 C123.18,61.39 138.32,46.25 157,46.25 L157,23.21 L157,23.21 C125.39,23.21 99.77,48.83 99.77,80.44 L99.77,190.44 C99.77,207.89 85.63,222.03 68.18,222.03 L68.18,233.18 L68.18,244.33 C85.63,244.33 99.77,258.47 99.77,275.92 L99.77,385.92 C99.77,417.53 125.39,443.15 157,443.15 L157,443.15 L157,420.11 C138.32,420.11 123.18,404.97 123.18,386.29 L123.18,267.93 C123.18,248.74 113.01,233.18 93.82,233.18 C113.01,233.18 123.18,217.62 123.18,198.43 Z" id="Path"></path>
            <rect id="Rectangle" transform="translate(226.680902, 257.806822) rotate(22.960107) translate(-226.680902, -257.806822) " x="213.695573" y="160.894367" width="25.9706577" height="193.824908"></rect>
            <path d="M678.48,194.59 L678.48,63.15 C678.48,42.41 661.67,25.59 640.92,25.59 L640.92,0 L640.92,0 C676.02,0 704.48,28.46 704.48,63.56 L704.48,185.72 C704.48,205.09 720.19,220.8 739.56,220.8 L739.56,233.18 L739.56,245.56 C720.19,245.56 704.48,261.27 704.48,280.64 L704.48,402.8 C704.48,437.9 676.03,466.36 640.92,466.36 L640.92,466.36 L640.92,440.77 C661.66,440.77 678.48,423.96 678.48,403.21 L678.48,271.77 C678.48,250.46 689.77,233.18 711.08,233.18 C689.77,233.18 678.48,215.9 678.48,194.59 Z" id="Path"></path>
            <path d="M616.38,198.43 L616.38,80.07 C616.38,61.39 601.24,46.25 582.56,46.25 L582.56,23.21 L582.56,23.21 C614.17,23.21 639.79,48.83 639.79,80.44 L639.79,190.44 C639.79,207.89 653.93,222.03 671.38,222.03 L671.38,233.18 L671.38,244.33 C653.93,244.33 639.79,258.47 639.79,275.92 L639.79,385.92 C639.79,417.53 614.17,443.15 582.56,443.15 L582.56,443.15 L582.56,420.11 C601.24,420.11 616.38,404.97 616.38,386.29 L616.38,267.93 C616.38,248.74 626.55,233.18 645.74,233.18 C626.55,233.18 616.38,217.62 616.38,198.43 Z" id="Path"></path>
            <rect id="Rectangle" transform="translate(512.896502, 257.761879) rotate(157.039893) translate(-512.896502, -257.761879) " x="499.911173" y="160.849424" width="25.9706577" height="193.824908"></rect>
            <path d="M369.78,3.72 C334.51,3.72 305.92,35.41 305.92,74.5 C305.92,113.59 334.51,145.28 369.78,145.28 C405.05,145.28 433.64,113.59 433.64,74.5 C433.64,35.41 405.05,3.72 369.78,3.72 Z M369.78,119.43 C347.39,119.43 329.24,99.31 329.24,74.5 C329.24,49.69 347.39,29.57 369.78,29.57 C392.17,29.57 410.32,49.69 410.32,74.5 C410.32,99.31 392.17,119.43 369.78,119.43 Z" id="Shape"></path>
            <polygon id="Path" points="443.56 217.97 430.56 195.46 382.78 223.04 382.78 167.87 356.78 167.87 356.78 223.04 309 195.46 296 217.97 343.78 245.56 296 273.15 309 295.67 356.78 268.08 356.78 323.25 382.78 323.25 382.78 268.08 430.56 295.67 443.56 273.15 395.78 245.56"></polygon>
            <path d="M369.78,346.88 C328.83,346.88 291.8,363.69 265.24,390.8 L284.34,409.92 C306.02,387.69 336.29,373.9 369.77,373.9 C403.27,373.9 433.54,387.69 455.2,409.92 L474.3,390.8 C447.76,363.69 410.73,346.88 369.78,346.88 Z" id="Path"></path>
            <path d="M369.78,400.13 C328.83,400.13 291.8,416.94 265.24,444.05 L284.34,463.17 C306.02,440.94 336.29,427.15 369.77,427.15 C403.27,427.15 433.54,440.94 455.2,463.17 L474.3,444.05 C447.76,416.94 410.73,400.13 369.78,400.13 Z" id="Path"></path>
        </g>
        <g id="Group" transform="translate(17.310000, 520.610000)" fill="#FCD34D" fill-rule="nonzero">
            <path d="M38.3,0 L29.01,0 C13.01,0 5.68434189e-14,13.01 5.68434189e-14,29.01 C5.68434189e-14,38.13 3.49,46.76 9.84,53.31 L44.81,89.44 C48.12,92.86 49.94,97.36 49.94,102.11 L49.94,109.17 C49.94,114.4 45.69,118.65 40.46,118.65 L27.25,118.65 C22.03,118.65 17.77,114.4 17.77,109.17 L17.77,89.77 L0.4,89.77 L0.4,109.17 C0.4,123.97 12.44,136.01 27.24,136.01 L40.47,136.01 C55.27,136.01 67.31,123.97 67.31,109.17 L67.31,102.11 C67.31,92.82 63.75,84.03 57.29,77.36 L22.32,41.23 C19.13,37.93 17.37,33.59 17.37,29.01 C17.37,22.59 22.59,17.37 29.01,17.37 L38.3,17.37 C44.72,17.37 49.94,22.59 49.94,29.01 L49.94,46.24 L67.31,46.24 L67.31,29.01 C67.31,13.01 54.3,0 38.3,0 Z" id="Path"></path>
            <path d="M227.61,0 L218.32,0 C202.32,0 189.31,13.01 189.31,29.01 C189.31,38.13 192.8,46.76 199.15,53.31 L234.12,89.44 C237.43,92.86 239.25,97.36 239.25,102.11 L239.25,109.17 C239.25,114.4 235,118.65 229.77,118.65 L216.57,118.65 C211.35,118.65 207.09,114.4 207.09,109.17 L207.09,89.77 L189.72,89.77 L189.72,109.17 C189.72,123.97 201.76,136.01 216.56,136.01 L229.77,136.01 C244.57,136.01 256.610006,123.97 256.610006,109.17 L256.610006,102.11 C256.610006,92.82 253.05,84.03 246.59,77.36 L211.62,41.23 C208.43,37.93 206.67,33.59 206.67,29.01 C206.67,22.59 211.89,17.37 218.31,17.37 L227.6,17.37 C234.02,17.37 239.24,22.59 239.24,29.01 L239.24,46.24 L256.610006,46.24 L256.610006,29.01 C256.62,13.01 243.6,0 227.61,0 Z" id="Path"></path>
            <path d="M147.24,68.52 C147.24,73.97 142.8,78.41 137.35,78.41 L120.64,78.41 C115.19,78.41 110.75,73.97 110.75,68.52 L110.75,3.21 L93.38,3.21 L93.38,68.52 C93.38,83.44 105.43,95.58 120.31,95.76 L120.31,132.59 L137.68,132.59 L137.68,95.76 C152.56,95.58 164.61,83.44 164.61,68.52 L164.61,3.21 L147.24,3.21 L147.24,68.52 L147.24,68.52 Z" id="Path"></path>
            <path d="M347.84,3.22 L330.47,3.22 L330.47,3.29 L330.38,3.22 L279.1,87.1 L279.62,87.39 L279.1,87.39 L279.1,104.76 L330.46,104.76 L330.46,132.6 L347.83,132.6 L347.83,104.76 L357.1,104.76 L357.1,87.39 L347.83,87.39 L347.83,3.22 L347.84,3.22 Z M296.9,87.39 L297.06,87.1 L330.47,31.02 L330.47,87.4 L296.9,87.4 L296.9,87.39 Z" id="Shape"></path>
            <path d="M480.69,3.51 L442.52,3.51 L442.52,132.61 L480.69,132.61 C496.53,132.61 509.42,119.72 509.42,103.89 L509.42,32.23 C509.42,16.39 496.53,3.51 480.69,3.51 Z M492.05,103.89 C492.05,110.15 486.95,115.25 480.69,115.25 L459.89,115.25 L459.89,20.88 L480.69,20.88 C486.95,20.88 492.05,25.98 492.05,32.24 L492.05,103.89 Z" id="Shape"></path>
            <path d="M581.03,1.11 L569.53,1.11 C554.26,1.11 541.84,13.9 541.84,29.62 L541.84,106.5 C541.84,122.22 554.26,135.01 569.53,135.01 L581.03,135.01 C596.3,135.01 608.72,122.22 608.72,106.5 L608.72,95.9 L591.35,95.9 L591.35,106.5 C591.35,112.64 586.72,117.64 581.02,117.64 L569.52,117.64 C563.83,117.64 559.19,112.64 559.19,106.5 L559.19,74.46 L608.71,74.43 L608.71,29.61 C608.72,13.9 596.3,1.11 581.03,1.11 Z M591.36,57.1 L559.2,57.1 L559.2,29.62 C559.2,23.48 563.83,18.48 569.53,18.48 L581.03,18.48 C586.72,18.48 591.36,23.48 591.36,29.62 L591.36,57.1 L591.36,57.1 Z" id="Shape"></path>
            <polygon id="Path" points="693.15 3.22 669.22 110.41 645.28 3.22 628.15 3.22 657.04 132.6 669.22 132.6 681.39 132.6 710.28 3.22"></polygon>
            <rect id="Rectangle" x="389.82" y="108.56" width="20.02" height="24.04"></rect>
        </g>
    </g>
</svg>